<svg xmlns="http://www.w3.org/2000/svg" xml:space="preserve" width="1280" height="209.067" enable-background="new 0 0 300 49.848" viewBox="-.013 -.001 300.038 49.853"><path fill="#020303" d="M299.777,36.931l-0.921-3.17l-0.866-2.898c0,0-2.735-8.914-3.092-10.088  c-0.443-1.454-0.883-2.903-1.298-4.313l-0.069-0.243l6.06-7.282l-2.848-8.938l-30.533,0.03l-0.932,1.485l-0.365-1.483l-30.739,0.032  l-0.754,1.686l-0.297-1.689l-30.981,0.035l-0.545,2.024l-0.207-2.024l-31.296,0.03l-0.3,3.31l-0.097-3.31l-31.455,0.033  l-0.105,3.027l-0.326-3.03l-31.188,0.034l-0.209,1.951l-0.558-1.949L90.817,0.204l-1.2,8.389l-0.685-1.731l-0.331-0.03l-2.629-6.624  L71.124,0.223l-0.301,1.609l-0.782-1.608L55.339,0.238L55.005,1.74l-0.866-1.502L39.563,0.254l-1.696,6.532L33.918,6.79  l-0.757,2.855l-6.866-9.378L12.11,0.281L-0.013,37.937l12.888,11.915h14.042l2.23-8.393l1.089,1.211h3.757l6.255,7.179l14.429-0.004  l0.285-1.358l1.021,1.36l14.541-0.002l0.26-1.469l0.929,1.469l14.679-0.002l1.134-7.871l3.787,7.871l14.875-0.003l0.187-1.801  l0.648,1.801l30.942-0.003l0.111-2.862l0.341,2.863l31.191-0.005l0.3-3.128l0.105,3.128l15.302-0.003l0.478-2.198l0.144,2.198  l15.116-0.003l0.641-1.887l0.187,1.887h14.951l0.769-1.68l0.223,1.68h14.808l0.889-1.534l0.251,1.533l14.679-0.005l8.486-12.098  l-0.405-1.939l4.702-0.002l6.64-9.198l5.716,23.235l14.409-0.002l12.026-11.98L299.777,36.931z M154.018,27.736l0.155-5.141  l14.732-0.009l0.128-1.708l0.232,6.853L154.018,27.736z"/><polygon fill="#A9A09D" points="26.943 8.807 24.983 15.643 33.681 15.643 35.508 8.892 39.484 8.889 41.177 2.342 52.64 2.33 44.56 37.066 32.202 37.07 35.905 22.32 31.444 22.315 29.514 29.5 21.509 29.503 23.505 22.311 18.984 22.324 14.625 37.075 2.494 37.082 13.631 2.369 24.882 2.358 23.016 8.662"/><polygon fill="#A9A09D" points="68.447 2.4 61.617 37.146 49.256 37.151 56.985 2.41"/><polygon fill="#A9A09D" points="85.164 25.878 86.188 18.695 81.711 18.611 78.751 37.056 66.374 37.058 72.858 2.311 84.332 2.3 83.327 8.733 87.255 8.833 86.324 15.553 90.741 15.615 92.626 2.29 104.108 2.28 100.085 37.048 87.695 37.053 89.246 25.979"/><polygon fill="#A9A09D" points="134.653 29.879 134.34 37.037 104.819 37.046 108.494 2.276 135.861 2.248 135.59 8.404 119.491 8.419 118.984 15.512 135.279 15.556 134.985 22.276 118.383 22.287 117.825 29.815"/><path fill="#A9A09D" d="M295.203,2.092l1.965,6.172l-7.992,0.006l0.05,0.191c0.331,1.35,0.688,2.723,1.072,4.125  c0.387,1.407,0.795,2.837,1.218,4.286c0.427,1.454,0.863,2.929,1.315,4.405c0.452,1.484,0.911,2.978,1.368,4.471  c0.277,0.908,0.555,1.822,0.837,2.748c0.287,0.928,0.573,1.863,0.855,2.802c0.287,0.943,0.568,1.891,0.85,2.838  c0.278,0.949,0.557,1.898,0.824,2.847l-12.473,0.004L277.25,8.283l-7.998,0.007l-1.577-6.171L295.203,2.092z"/><polygon fill="#A9A09D" points="266.487 15.292 268.187 22.196 251.499 22.205 254.589 36.997 242.139 37 235.763 2.15 263.259 2.123 264.776 8.293 248.589 8.307 250.05 15.285"/><path fill="#A9A09D" d="m218.643 25.764 1.537 11.245-12.44.003-3.85-34.83 27.464-.027 6.024 34.85-12.443.003-1.62-11.228L218.643 25.764zM226.707 12.085l-.699-4.424-5.437.006.5 4.054-4.268-.034-.55-4.017-5.26.007.553 4.42 4.829-.002.222 1.626-2.427.002.887 6.814 2.914-.003-.219-2.317 4.32-.017.361 2.331 2.954-.002-1.036-6.783-2.407-.013-.209-1.646L226.707 12.085M197.071 18.978l4.104-.003 1.818 18.037-12.425.007-1.109-14.684-4.6-.113.955 14.797-12.423.007-1.335-34.813 27.432-.026 1.3 12.917-4.094-.004L197.071 18.978zM188.966 15.522l-.538-7.162-4.465.001.461 7.163L188.966 15.522"/><polygon fill="#A9A09D" points="151.919 8.39 167.833 8.377 167.657 2.217 140.254 2.246 139.083 37.034 168.646 37.026 168.442 29.873 151.538 29.879"/><path fill="#282729" d="M4.115 37.08c-.891 0-1.095.505-.451 1.122l8.792 8.427c.642.615 1.899 1.122 2.791 1.122h7.74c.892 0 1.122-.534.515-1.187l-7.77-8.304c-.607-.65-1.836-1.184-2.728-1.184L4.115 37.08zM33.824 37.071c-.892 0-1.155.56-.582 1.243l6.865 8.191c.572.686 1.77 1.244 2.662 1.244h8.116c.892 0 1.186-.585.654-1.301l-6.011-8.08c-.533-.716-1.698-1.302-2.59-1.301L33.824 37.071z"/><path fill="#282729" d="M23.129 29.502c-.891 0-1.138.545-.546 1.215l7.639 8.623c.592.668 1.671 1.186 2.401 1.15.727-.034.904-.66.391-1.39l-.532-.754c-.514-.729-.74-2.029-.501-2.89l.148-.538c.24-.858-.02-2.135-.573-2.834l-1.038-1.31c-.553-.7-1.735-1.272-2.626-1.272H23.129zM50.877 37.151c-.893.001-1.188.59-.66 1.308l5.872 7.984c.526.719 1.689 1.307 2.581 1.307h7.994c.891 0 1.233-.617.757-1.373l-4.943-7.857c-.475-.756-1.592-1.374-2.484-1.372L50.877 37.151zM67.995 37.058c-.891 0-1.241.623-.775 1.384l4.764 7.799c.466.76 1.573 1.383 2.466 1.383h7.866c.893 0 1.302-.655.907-1.456l-3.755-7.658c-.393-.801-1.444-1.455-2.336-1.455L67.995 37.058zM89.317 37.052c-.891 0-1.314.662-.939 1.471l3.586 7.755c.376.81 1.411 1.471 2.303 1.471h8.12c.892 0 1.371-.685 1.063-1.522l-2.807-7.659c-.308-.837-1.287-1.521-2.18-1.521L89.317 37.052zM106.44 37.047c-.891 0-1.375.688-1.075 1.525l2.645 7.397c.299.842 1.276 1.528 2.167 1.528h24.02c.892 0 1.519-.724 1.394-1.605l-1.026-7.251c-.124-.884-.958-1.605-1.847-1.605L106.44 37.047zM140.704 37.034c-.891 0-1.543.725-1.447 1.613l.808 7.491c.096.888.903 1.612 1.795 1.612h23.896c.893 0 1.708-.725 1.812-1.61l.887-7.503c.105-.887-.541-1.611-1.431-1.61L140.704 37.034zM175.012 37.024c-.892 0-1.713.725-1.826 1.61l-.935 7.381c-.113.886.524 1.609 1.417 1.609h7.997c.892 0 1.792-.71 1.997-1.577l1.776-7.451c.203-.868-.355-1.577-1.247-1.576L175.012 37.024zM192.188 37.018c-.892 0-1.79.711-1.997 1.579l-1.737 7.324c-.206.868.355 1.578 1.248 1.578h7.996c.891 0 1.862-.688 2.157-1.53l2.603-7.426c.292-.841-.194-1.53-1.086-1.529L192.188 37.018zM209.361 37.011c-.894 0-1.867.688-2.163 1.529l-2.668 7.557c-.297.84.188 1.528 1.079 1.528h7.989c.892 0 1.932-.662 2.31-1.471l3.586-7.677c.377-.809-.043-1.47-.934-1.47L209.361 37.011zM226.556 37.006c-.892.001-1.941.656-2.331 1.458l-3.75 7.702c-.39.803.021 1.458.911 1.458h8.245c.893 0 1.987-.631 2.432-1.403l4.503-7.812c.447-.771.082-1.403-.811-1.403L226.556 37.006zM243.762 36.999c-.891 0-2.002.624-2.465 1.386l-4.782 7.854c-.464.761-.114 1.385.776 1.385h8.117c.892 0 2.046-.594 2.563-1.321l5.681-7.985c.516-.727.211-1.322-.683-1.322L243.762 36.999zM286.714 36.986c-.892 0-2.104.546-2.694 1.215l-7.135 8.081c-.591.669-.344 1.215.548 1.215h7.737c.894 0 2.144-.51 2.784-1.131l8.455-8.253c.636-.622.429-1.131-.464-1.13L286.714 36.986z"/><path fill="#020303" d="M11.584 8.145c-.083.225.578.413 1.469.415l8.501.035c.892.004 1.63-.189 1.644-.426.012-.239-.708-.434-1.6-.434h-8.242C12.463 7.734 11.666 7.919 11.584 8.145M10.994 25.811c.277-.847-.224-1.541-1.115-1.541H7.802c-.891 0-1.62.171-1.62.378 0 .208.729.38 1.62.38H8.83c.891 0 1.394.692 1.115 1.54l-1.89 5.753c-.277.849.225 1.542 1.117 1.542h6.369c.893 0 1.622-.171 1.622-.379s-.729-.378-1.622-.378h-5.322c-.892 0-1.394-.695-1.115-1.542l.151-.453c.278-.848 1.236-1.541 2.127-1.541h4.916c.893 0 1.623-.17 1.623-.377 0-.21-.73-.379-1.623-.379h-4.668c-.891 0-1.393-.692-1.115-1.541L10.994 25.811zM44.894 9.634c.121-.882-.512-1.606-1.402-1.606l-2.464.003c-.892.001-1.685.171-1.765.378-.08.205.587.375 1.479.375h1.885c.892 0 1.524.723 1.403 1.607l-.346 2.552c-.12.883-.948 1.606-1.838 1.606h-7.789c-.892 0-1.621.171-1.621.378 0 .208.729.379 1.621.379h7.686 1.837 1.838 3.95c.891 0 1.621-.171 1.621-.379 0-.207-.729-.378-1.621-.378h-3.519c-.891 0-1.525-.723-1.403-1.606L44.894 9.634zM55.592 32.821c.16-.878.057-1.221-.229-.765-.287.454-.655 1.544-.82 2.423l-.241 1.286c-.165.875.11 2.197.611 2.936l.408.6c.502.738 1.302 1.63 1.779 1.984.476.354.461.038-.035-.704l-1.368-2.046c-.496-.742-.771-2.065-.61-2.943L55.592 32.821zM67.779 9.375c0-.208-.728-.365-1.619-.347l-3.196.062c-.891.019-1.252.174-.801.347.451.174 1.55.317 2.441.317h1.555C67.051 9.754 67.779 9.583 67.779 9.375M72.477 34.659c.195-.871.097-1.198-.214-.728-.309.472-.681 1.365-.827 1.985-.146.622-.029 1.751.261 2.508.289.759.789 1.719 1.11 2.133.323.413.358.06.077-.787l-.412-1.237c-.281-.847-.354-2.253-.162-3.123L72.477 34.659zM69.421 25.868c-.892-.044-1.629.087-1.642.296-.009.208.712.414 1.602.46l9.064.459c.889.044 1.851.443 2.135.884.284.439.659.708.833.596.176-.113.041-.641-.302-1.171-.341-.53-1.353-1.002-2.239-1.047L69.421 25.868zM79.015 8.169c.346.241 1.359.438 2.251.438h.689c.891 0 1.622-.17 1.622-.38 0-.206-.731-.395-1.622-.415L80.004 7.77C79.113 7.748 78.668 7.929 79.015 8.169M89.835 26.096c-.89.038-1.614.24-1.605.447.008.208.745.347 1.634.309l5.265-.223c.891-.038 1.511.653 1.377 1.535l-1.1 7.28c-.136.88-.035 2.3.224 3.155l.229.763c.259.853.772 1.982 1.146 2.507.374.526.468.257.213-.597l-.814-2.727c-.254-.855-.355-2.276-.222-3.156l1.21-8.022c.133-.881-.486-1.573-1.378-1.534L89.835 26.096zM91.639 7.986c-.036.205.654.495 1.535.643l8.973 1.054c.884.11 1.608.028 1.608-.18 0-.21-.724-.471-1.608-.582l-8.845-1.038C92.421 7.734 91.672 7.782 91.639 7.986M111.164 30.814c.029-.892-.672-1.619-1.565-1.619h-3.209c-.891 0-1.622.171-1.622.378 0 .208.731.379 1.622.379h2.424c.891 0 1.595.729 1.565 1.62l-.13 3.744c-.031.891.125 2.326.346 3.189l.599 2.341c.223.864.637 1.993.926 2.508.286.517.361.226.163-.643l-.97-4.277c-.196-.869-.333-2.31-.303-3.201L111.164 30.814zM106.662 12.406c0 .208.73.379 1.622.379h3.066c.891 0 1.99-.2 2.441-.441.452-.244.09-.431-.801-.418l-4.707.076C107.392 12.016 106.662 12.198 106.662 12.406M127.528 16.297c-.021-.892-.21-1.622-.422-1.622-.205 0-.376.73-.376 1.622v3.7c0 .892.197 1.194.441.675.242-.522.422-1.676.401-2.569L127.528 16.297zM131.219 30.097c-.032.892-.786 1.619-1.679 1.619h-2.453c-.891 0-1.622.731-1.622 1.623v2.438c0 .892.169 1.621.38 1.621.209 0 .379-.729.379-1.621v-1.681c0-.891.729-1.619 1.623-1.619h2.428c.891 0 1.645-.729 1.675-1.622l.026-.785c.031-.892-.115-1.626-.323-1.635-.208-.007-.405.716-.435 1.606V30.097zM162.266 31.785c-.174.332-.239 1.33-.144 2.216l.161 1.529c.093.886.069 2.335-.053 3.217l-1.067 7.726c-.121.882-.012 1.594.242 1.583.256-.012.555-.746.665-1.631l.949-7.663c.11-.886.122-2.336.026-3.222l-.291-2.746C162.658 31.908 162.44 31.453 162.266 31.785M139.479 43.71c0 .208.729.379 1.621.379h.42c.891 0 1.62-.17 1.62-.379 0-.207-.729-.378-1.62-.378h-.42C140.208 43.332 139.479 43.503 139.479 43.71M142.384 13.414c.417.208 1.468.54 2.338.737l6.247 1.115c.82.353 1.557.487 1.639.295.084-.191-.541-.577-1.388-.858l-8.002-1.364C142.343 13.171 141.967 13.206 142.384 13.414M142.255 20.42c.347-.244-.098-.416-.989-.383l-.292.01c-.894.032-1.621.229-1.621.437 0 .208.511.378 1.134.378C141.113 20.862 141.907 20.663 142.255 20.42M177.545 13.792c.053.487.826.884 1.72.884h.707c.891 0 1.733.039 1.864.084.137.047.638.404.816.297s.048-.404-.288-.66c-.337-.256-1.379-.471-2.271-.474h-.15c-.893-.001-1.703-.729-1.803-1.613l-.994-8.938c-.1-.888-.351-1.593-.557-1.569-.205.023-.296.767-.196 1.653l.788 7.086c.101.886-.553 1.611-1.442 1.611h-2.574c-.892 0-1.62.17-1.62.376 0 .208.729.378 1.62.378h2.658C176.715 12.907 177.489 13.305 177.545 13.792M176.46 31.578c.06.889-.253 2.249-.698 3.023l-.678.763c-.207.868-.211 1.612-.008 1.656.205.043.595-.615.866-1.465 0 0 .103-.37.432-.837.325-.47.688-.854.798-.854.112 0 .155-.729.094-1.618l-.282-4.087c-.063-.888.618-1.616 1.51-1.616h6.074c.892 0 1.62-.171 1.62-.379 0-.207-.729-.38-1.62-.38h-6.884c-.891 0-1.574.729-1.512 1.619L176.46 31.578zM189.215 28.437c0 .208.729.379 1.621.379h4.078c.893 0 1.934-.171 2.316-.379.387-.209-.031-.381-.922-.381l-5.473.002C189.945 28.058 189.215 28.229 189.215 28.437M192.717 17.747c.227.187 1.14.341 2.031.341h1.177c.893 0 1.622-.171 1.622-.378 0-.21-.729-.37-1.622-.357l-1.996.029C193.036 17.395 192.493 17.559 192.717 17.747M171.922 44.341c-.017.207.699.43 1.588.493l9.013.65c.888.065 1.628-.053 1.645-.261.014-.207-.702-.428-1.591-.493l-9.009-.648C172.679 44.018 171.938 44.134 171.922 44.341M224.538 28.166c-.891.011-1.619.188-1.618.396.001.208.732.371 1.623.363l11.021 1.224c.888.086 1.674-.003 1.744-.199.074-.193-.594-.427-1.479-.517L224.538 28.166zM258.898 14.17c-.195.07-.316.854-.274 1.746l1.007 5.078c-.382.806-.543 1.541-.356 1.635.188.093.659-.488 1.045-1.291l-.983-5.675C259.291 14.772 259.095 14.101 258.898 14.17M253.048 4.704c-.797 0-1.656-.679-1.911-1.506-.255-.831-.624-1.458-.824-1.397-.198.061-.147.809.115 1.661l.139.451c.26.853 1.129 1.55 1.931 1.55.8 0 1.696.689 1.983 1.534l.377 1.092c.289.844.688 1.479.881 1.411.197-.066.12-.811-.169-1.655l-.55-1.607C254.732 5.395 253.844 4.704 253.048 4.704M282.988 26.669c-.89 0-1.619.17-1.619.379 0 .21.729.381 1.619.381h10.392c.893 0 1.621-.171 1.621-.381 0-.209-.729-.379-1.621-.379H282.988zM290.834 8.87c.2-.054.175-.803-.063-1.663l-1.04-3.815c-.232-.861-.59-1.52-.793-1.464-.198.054-.173.803.063 1.663l1.041 3.814C290.279 8.264 290.634 8.924 290.834 8.87"/><path fill="#020303" d="M38.936 8.648h3.396c.891 0 .904-.142.029-.311l-1.171-.23c-.876-.171-1.546-.013-1.494.353L38.936 8.648zM19.937 42.256c-.345-.382-1.354-.606-2.237-.499l-1.959.242c-.885.108-.885.282.001.387l3.215.378C19.844 42.867 20.285 42.639 19.937 42.256M52.063 46.424c-.241-.382-1.167-.634-2.057-.557l-4.215.357c-.889.074-.889.203-.002.284l5.103.462C51.78 47.05 52.309 46.805 52.063 46.424M90.946 44.846c-.105-.346.538-.609 1.431-.584l1.05.032c.891.024.921.25.064.499l-.801.231C91.834 45.272 91.049 45.192 90.946 44.846M135.439 42.385c-.068-.521-.845-.845-1.728-.719l-2.98.425c-.879.126-.879.342-.001.482l3.231.507C134.843 43.219 135.507 42.906 135.439 42.385M139.161 44.188c-.045-.52.646-.861 1.53-.76l.093.011c.888.101.956.5.151.886l-.229.11C139.901 44.819 139.206 44.708 139.161 44.188M111.016 35.505c-.105-.764-.304-.821-.443-.126-.139.695-.044 1.961.212 2.815l.204.679c.257.854.417.825.353-.063l-.02-.299C111.256 37.621 111.121 36.269 111.016 35.505M125.783 36.072c-.174-.313-.291.16-.259 1.05l.013.423c.032.891.17 1.052.312.359C125.986 37.209 125.958 36.385 125.783 36.072M95.868 35.756c-.036-.765-.176-.765-.314 0-.139.765-.022 2.082.257 2.928l.236.709c.281.846.393.817.246-.061l-.096-.586C96.051 37.864 95.901 36.521 95.868 35.756M71.818 36.325c-.139-.313-.369-.255-.504.126-.139.382.005 1.09.317 1.577.313.485.542.43.505-.126C72.1 37.347 71.958 36.638 71.818 36.325M55.029 35.79c-.172-.765-.484-.68-.692.187v.003c-.209.866.133 2.088.756 2.713.624.626.935.541.694-.188C55.542 37.774 55.203 36.554 55.029 35.79M24.799 34.685c-.243-.313.286-.504 1.175-.427l2.571.223c.889.077.891.232.008.346l-1.704.22C25.966 35.161 25.043 34.998 24.799 34.685M162.478 35.215c.127-.882.38-.891.57-.021l.077.365c.188.872.154 2.291-.074 3.153l-.309 1.158c-.228.86-.436.836-.461-.055l-.032-1.048c-.026-.892.056-2.343.182-3.227L162.478 35.215zM152.355 15.75c0 .382-.604.282-1.341-.217l-.476-.323c-.738-.502-.633-.742.235-.534l.005.001C151.646 14.887 152.355 15.367 152.355 15.75M201.65 41.436c.103-.347-.541-.61-1.434-.585l-1.174.034c-.89.026-.916.243-.06.486l.919.257C200.759 41.868 201.546 41.782 201.65 41.436M195.336 36.073c-.244-.521-.416-.217-.382.674l.006.166c.035.89.231 1.279.439.863C195.609 37.359 195.581 36.594 195.336 36.073M217.746 43.015c.138-.382-.476-.635-1.363-.565l-3.081.248c-.889.07-.896.237-.013.372l2.602.396C216.77 43.6 217.605 43.397 217.746 43.015M214.59 36.262c-.14-.418-.338-.446-.442-.064-.103.382-.074 1.235.063 1.896.138.659.338.688.44.063C214.756 37.531 214.729 36.679 214.59 36.262M259.338 22.818c-.313-.104-.284-.843.064-1.641.346-.799.602-.725.566.167l-.001.044C259.933 22.279 259.65 22.924 259.338 22.818M238.13 42.131c.313-.381 1.29-.586 2.171-.454l4.367.655c.883.132.876.262-.014.286l-5.471.161C238.292 42.806 237.82 42.513 238.13 42.131M279.534 42.131c.382-.521 1.412-.809 2.289-.639l4.012.775c.874.169.862.348-.028.402l-5.347.314C279.567 43.037 279.152 42.653 279.534 42.131M281.178 26.983c-.174-.59.403-.965 1.285-.834l3.61.533c.88.131.884.37.006.531l-2.989.549C282.213 27.923 281.353 27.573 281.178 26.983M276.946 9.438c-.277-.244-.533-1.172-.564-2.063l-.006-.169c-.03-.89.128-.913.357-.051l.304 1.157C277.264 9.174 277.223 9.682 276.946 9.438M236.807 30.583l-2.281-.914c-.829-.331-.782-.534.107-.451l2.423.227M150.147 37.901c.171-.485.171-1.251 0-1.704-.172-.451-1.044-.818-1.935-.818h-.927c-.892 0-1.876.425-2.189.947-.313.521.134 1.148.992 1.391l2.187.624C149.134 38.585 149.975 38.386 150.147 37.901"/><path fill="#020303" d="M148.632 36.639c-.593-.623-.563-1.136.064-1.136.625 0 1.392.314 1.704.696.311.382.18 1.314-.293 2.07l-.175.281c-.475.754-.717.891-.545.3C149.564 38.257 149.222 37.265 148.632 36.639M91.511 8.238c.07-.486.833-.707 1.697-.49l.389.097c.866.218.862.56-.006.763l-.627.146C92.096 8.958 91.441 8.726 91.511 8.238M50.675 15.117c-.175.313-1.023.397-1.891.188l-.509-.123c-.865-.208-.849-.422.044-.476l1.051-.062C50.26 14.592 50.849 14.804 50.675 15.117M17.791 29.066c.141-.418-.464-.619-1.338-.448l-1.358.264c-.875.171-.871.424.009.561l.832.131C16.816 29.712 17.652 29.484 17.791 29.066"/><path fill="#282729" d="M20.316 42.385c-.277-.311-.3-1.269-.047-2.123l.348-1.183c.251-.856.421-.827.38.064l-.102 2.189C20.854 42.225 20.594 42.695 20.316 42.385M51.875 46.549c-.278-.174-.278-.939 0-1.704.278-.764.505-.658.505.234v.164C52.38 46.135 52.153 46.723 51.875 46.549M80.341 27.553c-.034-.556.203-.333.53.499l.2.516c.328.83.31 1.168-.037.752C80.687 28.903 80.375 28.108 80.341 27.553M238.512 42.637c.31-.244.366-1.144.121-2.001l-.374-1.302c-.244-.857-.427-.829-.404.062l.052 2.062C237.925 42.349 238.2 42.88 238.512 42.637M280.168 42.383c.451-.244.516-1.105.141-1.913l-1.673-3.62c-.372-.812-.544-.758-.381.121l.796 4.26C279.214 42.109 279.717 42.627 280.168 42.383M281.934 26.921c-.174-.347-.638.024-1.032.823l-1.725 3.528c-.394.801-.284.867.243.149l1.873-2.561C281.82 28.141 282.109 27.27 281.934 26.921"/><path fill="#020303" d="M254.855,9.627l0.07-2.038c0.03-0.892,0.239-0.915,0.463-0.053l0.603,2.343"/><path fill="#595558" d="M14.322 43.267c-.798-.243-.741-.385.126-.314.867.068 2.146.211 2.839.315.693.104.637.247-.126.314C16.397 43.652 15.12 43.51 14.322 43.267M54.283 38.797c-.629-.63-.721-.553-.204.172l.64.896c.518.725 1.341 1.574 1.828 1.887.486.313.458.058-.062-.568-.522-.625-1.465-1.652-2.095-2.282L54.283 38.797zM70.557 37.02c-.21 0-.095.595.252 1.326.347.729.517.729.379 0C71.049 37.614 70.765 37.02 70.557 37.02M93.788 45.099c-.695-.07-.544-.256.333-.418l.969-.175c.877-.16 1.227-.062.776.216C95.418 44.999 94.481 45.168 93.788 45.099M110.005 38.345c-.313-.451-.427-.168-.254.63.174.798.629 2.021 1.011 2.714.379.696.528.552.326-.315l-.146-.628C110.738 39.876 110.318 38.795 110.005 38.345M163.656 39.732c-.105-.521-.363-.436-.569.188-.208.625-.379 1.817-.379 2.653 0 .832.232.822.514-.023l.111-.333C163.614 41.372 163.759 40.253 163.656 39.732M145.779 36.256c-.176-.532-.579-.441-.896.201-.316.643.083 1.487.883 1.877l.04.017c.798.389 1.195.295.875-.211C146.364 37.637 145.955 36.789 145.779 36.256M175.771 45.35c-.797-.207-.721-.378.171-.378h.293c.89 0 2.273.227 3.073.505.797.278.725.454-.167.389l-.298-.021C177.954 45.781 176.572 45.559 175.771 45.35M196.033 38.345c-.067-.313-.324-.028-.568.63-.246.659-.188.916.126.569C195.903 39.196 196.103 38.655 196.033 38.345M215.523 37.656c-.07-.31-.326-.028-.568.632-.244.659-.186.917.127.568C215.393 38.508 215.593 37.969 215.523 37.656M212.394 43.511c-.876-.168-.865-.377.021-.464l.686-.066c.887-.085 1.983.071 2.436.35.451.278.309.505-.316.505s-1.852-.137-2.729-.306L212.394 43.511zM241.038 43.458c-.799.069-.799-.073 0-.316.797-.244 2.179-.381 3.066-.305l1.187.104c.887.075.886.18-.004.231l-1.181.067C243.216 43.291 241.834 43.389 241.038 43.458"/><path fill="#282729" d="M259.525,23.071c-0.416,0.174-1.036,0.989-1.378,1.813l-0.017,0.034c-0.342,0.824-0.183,0.917,0.354,0.206  l0.817-1.077C259.842,23.335,259.944,22.896,259.525,23.071"/><path fill="#020303" d="M290.899 9.249c-.383 0-.766-.726-.853-1.614L289.98 6.95c-.086-.889.146-.95.513-.137l.435.959C291.293 8.584 291.281 9.249 290.899 9.249M171.608 12.845c-.034-.451.667-.795 1.558-.765l.542.017c.891.031.947.333.124.674l-.665.272C172.344 13.385 171.641 13.295 171.608 12.845M127.236 14.486c-.35-.174-.541.407-.425 1.291l.089.701c.116.884.372.897.575.028l.026-.123C127.704 15.514 127.583 14.661 127.236 14.486M87.532 26.795c-.104-.346.541-.63 1.432-.63h3.45c.891 0 .905.143.031.317l-3.133.625C88.439 27.282 87.635 27.142 87.532 26.795M17.066 33.736c.053-.26-.634-.475-1.527-.475h-.828c-.894 0-.914.174-.048.386l.733.178C16.261 34.039 17.012 33.996 17.066 33.736"/><path fill="#E1DCD7" d="M4.515 36.623c-.892.011-1.479.16-1.303.333.175.175 1.047.317 1.938.317h6.606c.889 0 1.762-.17 1.936-.379.174-.209-.416-.37-1.307-.361L4.515 36.623zM34.436 36.623c-.894.011-1.482.16-1.306.333.173.175 1.043.317 1.934.317h6.606c.891 0 1.763-.17 1.938-.379.174-.209-.416-.37-1.306-.361L34.436 36.623zM51.257 36.492c-.891.028-1.573.196-1.516.37.059.174.837.316 1.728.316h.114c.892 0 1.67-.171 1.731-.379.058-.21-.622-.355-1.514-.327L51.257 36.492zM21.243 21.817c-.891.03-1.572.197-1.513.37.062.174.839.317 1.73.317h.112c.891 0 1.668-.171 1.73-.379.059-.21-.622-.356-1.513-.327L21.243 21.817zM33.645 21.817c-.89.03-1.57.197-1.512.37.062.174.838.317 1.728.317h.113c.892 0 1.669-.171 1.729-.379.06-.21-.622-.356-1.514-.327L33.645 21.817zM8.838 23.799c-.89.032-1.574.2-1.521.376.051.173.777.315 1.607.315.83 0 1.553-.171 1.606-.378.054-.208-.631-.352-1.521-.319L8.838 23.799zM23.705 28.847c-.893.017-1.531.171-1.422.346.112.174.931.314 1.822.314h2.964c.893 0 1.712-.169 1.821-.376.111-.208-.529-.365-1.42-.349L23.705 28.847zM16.888 7.263c-.893.016-1.531.171-1.42.344.11.173.929.315 1.819.315h2.968c.893 0 1.712-.17 1.821-.378.108-.209-.532-.367-1.423-.351L16.888 7.263zM68.485 36.492c-.89.028-1.572.196-1.512.37.061.174.837.316 1.728.316h.111c.891 0 1.671-.171 1.731-.379.06-.21-.621-.355-1.515-.327L68.485 36.492zM97.927 36.487c-.891.031-1.577.2-1.522.375.053.174.777.317 1.607.317.833 0 1.554-.171 1.607-.381.053-.208-.635-.35-1.522-.319L97.927 36.487zM73.977 36.514c-.891.02-1.544.175-1.447.349.095.174.903.314 1.794.314h2.216c.892 0 1.699-.171 1.795-.378.095-.208-.556-.366-1.448-.346L73.977 36.514zM89.598 36.516c-.893.017-1.533.172-1.426.347.108.174.925.315 1.816.315h2.793c.892 0 1.709-.171 1.818-.379.106-.208-.536-.367-1.427-.348L89.598 36.516zM106.831 36.506c-.891.023-1.557.183-1.481.357.079.174.872.314 1.763.314h1.207c.891 0 1.685-.171 1.765-.379.079-.208-.586-.361-1.479-.338L106.831 36.506zM141.005 36.506c-.891.023-1.557.183-1.477.357.08.174.874.314 1.766.314h1.202c.89 0 1.686-.171 1.766-.379.08-.208-.585-.361-1.476-.338L141.005 36.506zM165.336 36.5c-.891.025-1.564.188-1.495.362.072.174.856.316 1.751.316h.7c.891 0 1.679-.171 1.749-.379.072-.209-.6-.359-1.492-.333L165.336 36.5zM177.458 36.525c-.891.012-1.5.163-1.351.337.15.174 1.002.314 1.893.314h5.295c.891 0 1.743-.171 1.894-.379.152-.208-.455-.37-1.347-.358L177.458 36.525zM192.415 36.495c-.891.028-1.57.194-1.507.369.063.172.843.315 1.731.315h.254c.892 0 1.671-.171 1.733-.379.064-.209-.615-.356-1.508-.329L192.415 36.495zM197.814 36.514c-.895.02-1.543.175-1.447.349s.906.314 1.797.314h2.271c.891 0 1.701-.171 1.799-.378.094-.208-.555-.366-1.447-.346L197.814 36.514zM209.741 36.508c-.893.021-1.554.18-1.471.354s.881.316 1.773.316h1.425c.891 0 1.691-.171 1.772-.379.082-.208-.579-.363-1.471-.341L209.741 36.508zM216.841 36.5c-.891.027-1.565.19-1.499.364.068.173.854.315 1.747.315h.59c.892 0 1.677-.171 1.742-.379.068-.209-.606-.358-1.497-.332L216.841 36.5zM226.88 36.529c-.892.009-1.472.159-1.286.333.185.174 1.066.316 1.957.316h7.306c.892 0 1.774-.171 1.959-.38.185-.208-.392-.371-1.282-.361L226.88 36.529zM243.918 36.529c-.892.009-1.471.159-1.285.333.184.174 1.066.316 1.959.316h7.305c.892 0 1.774-.171 1.961-.38.188-.208-.391-.371-1.281-.361L243.918 36.529zM286.996 36.529c-.891.009-1.468.159-1.28.333.184.174 1.066.316 1.959.316h7.297c.893 0 1.776-.171 1.962-.38.185-.208-.392-.371-1.282-.361L286.996 36.529zM271.184 7.827c-.891.018-1.536.172-1.431.347.104.174.921.315 1.812.315h2.686c.892 0 1.708-.17 1.813-.379.104-.208-.54-.366-1.432-.348L271.184 7.827zM257.739 7.832c-.89.015-1.521.167-1.402.342.122.174.949.315 1.842.315h3.522c.894 0 1.72-.17 1.841-.378.118-.209-.512-.367-1.405-.353L257.739 7.832zM250.92 7.819c-.891.021-1.552.181-1.467.354.082.174.878.316 1.773.316h1.515c.892 0 1.689-.17 1.774-.379.085-.209-.574-.362-1.468-.34L250.92 7.819zM253.198 21.748c-.893.016-1.533.171-1.425.345.106.174.925.314 1.815.314h2.855c.89 0 1.707-.169 1.817-.376.109-.209-.534-.366-1.426-.35L253.198 21.748zM211.635 6.876c-.892.021-1.554.18-1.469.354.083.172.88.314 1.773.314h1.512c.892 0 1.689-.17 1.774-.378.082-.208-.579-.362-1.471-.339L211.635 6.876zM221.289 6.876c-.893.021-1.553.18-1.468.354.081.172.882.314 1.773.314h1.517c.891 0 1.688-.17 1.773-.378.081-.208-.578-.362-1.472-.339L221.289 6.876zM215.107 13.004c-.72.032-1.275.204-1.232.378.042.175.599.318 1.236.318s1.193-.171 1.232-.379C216.383 13.114 215.826 12.971 215.107 13.004M218.546 11.016c-.891.034-1.577.205-1.528.379.051.174.748.317 1.549.317s1.496-.171 1.546-.38c.05-.21-.639-.352-1.53-.317L218.546 11.016zM175.562 11.395c-.891.033-1.579.203-1.529.378.049.174.747.317 1.548.317s1.498-.171 1.553-.379c.053-.209-.636-.352-1.524-.319L175.562 11.395zM186.355 21.44c-.894.028-1.573.193-1.507.368.063.173.844.316 1.735.316h.279c.892 0 1.673-.169 1.734-.377.063-.21-.615-.357-1.507-.331L186.355 21.44zM178.781 25.058c-.891.02-1.543.175-1.446.348.097.174.904.315 1.798.315h2.211c.891 0 1.7-.171 1.795-.379.096-.21-.555-.365-1.445-.345L178.781 25.058zM285.952 25.815c-.891.02-1.541.175-1.445.349.097.173.908.315 1.798.315h2.209c.893 0 1.701-.171 1.798-.38.097-.208-.554-.362-1.443-.344L285.952 25.815zM107.685 28.645c-.891.024-1.563.187-1.492.36.073.172.861.314 1.752.314h.868c.891 0 1.682-.17 1.755-.378s-.595-.358-1.488-.334L107.685 28.645zM92.533 25.614c-.891.024-1.561.187-1.489.36.072.173.859.314 1.75.314h.87c.893 0 1.683-.17 1.756-.377.073-.209-.597-.359-1.489-.335L92.533 25.614zM70.944 25.329c-.892.025-1.561.188-1.488.362.075.174.865.316 1.756.316h.868c.891 0 1.681-.171 1.754-.381.074-.208-.597-.359-1.489-.335L70.944 25.329zM38.287 13.782c-.891.016-1.541.168-1.443.342.1.175.909.32 1.802.324l2.378.008c.891.004 1.704-.165 1.802-.373.1-.209-.546-.367-1.439-.352L38.287 13.782zM99.586 8.293c-.886-.097-1.574-.028-1.525.155.048.183.811.43 1.694.549l.863.117c.884.121 1.689.058 1.788-.137.099-.196-.543-.436-1.431-.533L99.586 8.293zM192.509 27.412c-.892.024-1.563.186-1.489.36.072.173.862.314 1.752.314h.869c.891 0 1.68-.17 1.753-.378.071-.208-.597-.358-1.491-.334L192.509 27.412zM219.776 24.763c-.891.024-1.561.186-1.488.36.073.172.862.314 1.753.314h.87c.891 0 1.679-.171 1.752-.379.071-.21-.596-.358-1.488-.334L219.776 24.763zM154.256 7.559c-.89.009-1.435.158-1.207.333.228.173 1.143.315 2.034.315h9.6c.891 0 1.805-.169 2.034-.38.224-.208-.318-.373-1.211-.364L154.256 7.559zM121.787 7.657c-.89.007-1.43.156-1.194.329.235.174 1.158.315 2.048.315h10.012c.891 0 1.811-.169 2.047-.379.235-.208-.305-.372-1.196-.364L121.787 7.657zM120.085 21.466c-.892.013-1.518.167-1.391.341.126.175.96.318 1.852.318h3.976c.89 0 1.724-.17 1.85-.378.126-.208-.5-.367-1.391-.354L120.085 21.466zM128.791 21.465c-.891.013-1.523.168-1.402.342.121.175.948.318 1.84.318h3.554c.889 0 1.718-.169 1.839-.377.121-.21-.511-.369-1.402-.353L128.791 21.465zM147.446 34.691c-.892.03-1.573.199-1.516.371.057.173.833.316 1.725.316h.027c.891 0 1.668-.17 1.728-.379s-.621-.354-1.513-.324L147.446 34.691zM144.883 12.498c-.886-.102-1.561-.033-1.5.149.062.187.834.436 1.717.558l1.629.227c.884.12 1.699.061 1.813-.134s-.516-.438-1.403-.541L144.883 12.498zM226.298 27.459c-.886-.102-1.56-.036-1.496.146.058.184.837.434 1.72.557l1.623.225c.884.121 1.698.063 1.813-.132.114-.194-.517-.436-1.402-.538L226.298 27.459zM223.349 13.004c-.667.032-1.184.204-1.146.378.037.175.552.318 1.143.318.594 0 1.108-.171 1.147-.379C224.532 13.114 224.017 12.971 223.349 13.004M261.812 21.75c-.891.016-1.524.168-1.405.342.121.174.947.316 1.839.316h3.527c.89 0 1.721-.17 1.839-.378.116-.208-.515-.365-1.408-.352L261.812 21.75zM293.051 7.821C292.16 7.841 291.5 8 291.587 8.174c.087.174.887.315 1.778.315h1.622c.894 0 1.694-.169 1.778-.379.089-.208-.57-.361-1.463-.341L293.051 7.821zM152.936 36.527c-.891.011-1.487.162-1.325.336.166.173 1.029.314 1.92.314h6.074c.891 0 1.755-.17 1.92-.378.164-.208-.431-.37-1.322-.358L152.936 36.527zM113.173 36.532c-.891.008-1.444.156-1.229.33.216.174 1.12.316 2.013.316h9.008c.892 0 1.799-.171 2.015-.381.216-.208-.338-.372-1.229-.363L113.173 36.532zM127.943 36.519c-.89.016-1.523.17-1.405.344.119.173.945.314 1.836.314h3.469c.891 0 1.716-.171 1.837-.379.116-.208-.517-.366-1.408-.352L127.943 36.519zM57.666 36.603c-.891.021-1.556.18-1.472.354.082.175.877.316 1.77.316h1.458c.891 0 1.688-.17 1.77-.379.084-.209-.577-.361-1.468-.34L57.666 36.603z"/></svg>